<svg xmlns="http://www.w3.org/2000/svg" width="38" height="38" viewBox="0 0 38 38"><g><g opacity=".5"><path fill="#fff" d="M18.925.237c10.283 0 18.62 8.336 18.62 18.62 0 10.283-8.337 18.62-18.62 18.62-10.283 0-18.62-8.337-18.62-18.62C.306 8.573 8.643.237 18.926.237zM3.173 18.92c0 8.667 7.025 15.692 15.692 15.692 8.666 0 15.691-7.025 15.691-15.692 0-8.666-7.025-15.691-15.691-15.691-8.667 0-15.692 7.025-15.692 15.691z"/></g><g opacity=".8"><path fill="#fff" d="M18.865 3.228c8.666 0 15.691 7.025 15.691 15.691 0 8.667-7.025 15.692-15.691 15.692-8.667 0-15.692-7.025-15.692-15.692 0-8.666 7.025-15.691 15.692-15.691zm6.271 23.61c.964 0 1.745-.781 1.745-1.745v-12.31c0-.964-.781-1.746-1.745-1.746H12.81c-.964 0-1.745.782-1.745 1.745v12.311c0 .964.78 1.745 1.744 1.745zm.005-9.101v6.785a.611.611 0 0 1-.612.612H13.464a.611.611 0 0 1-.611-.612v-6.785h1.38a4.921 4.921 0 1 0 9.529 0c.882.002 1.379 0 1.379 0zm-6.143-1.605c1.567 0 3.066 1.144 3.066 2.838 0 1.694-1.499 2.839-3.066 2.839a2.838 2.838 0 0 1 0-5.677zm3.697-3.316h1.865c.338 0 .611.273.611.611v1.864a.611.611 0 0 1-.611.612h-1.865a.611.611 0 0 1-.611-.612v-1.864c0-.338.274-.611.611-.611z"/></g></g></svg>