<svg xmlns="http://www.w3.org/2000/svg" width="49" height="49" viewBox="0 0 49 49"><g><g><path fill="#323232" d="M32.966 16.51v14.68c0 .447-.363.809-.81.809H16.625a.809.809 0 0 1-.809-.81V16.512c0-2.291.892-4.445 2.512-6.064a8.519 8.519 0 0 1 6.063-2.512c2.29 0 4.444.892 6.064 2.512a8.519 8.519 0 0 1 2.512 6.064zm-1.618 4.139c-.634-.214-1.032-.656-1.346-1.004-.37-.41-.55-.593-.946-.595-.023.013-.136.092-.308.427-.173.336-.334.788-.489 1.226-.204.575-.414 1.17-.697 1.648-.424.718-.969 1.082-1.619 1.082s-1.194-.364-1.618-1.082c-.283-.479-.494-1.073-.698-1.648-.155-.438-.315-.89-.487-1.226-.173-.334-.286-.414-.31-.427-.394.002-.576.185-.945.595-.43.477-1.018 1.13-2.155 1.13-1.137 0-1.725-.653-2.154-1.13a9.306 9.306 0 0 0-.143-.156V30.38h13.915zM22.34 32.797h4.099v6.164a2.05 2.05 0 0 1-4.099 0zm2.159-32C37.589.798 48.2 11.41 48.2 24.5c0 13.09-10.612 23.703-23.701 23.703C11.41 48.202.798 37.589.798 24.499S11.41.798 24.5.798zM46.2 24.5c0-11.966-9.735-21.701-21.701-21.701-11.967 0-21.702 9.735-21.702 21.701 0 11.967 9.735 21.702 21.702 21.702 11.966 0 21.701-9.735 21.701-21.702z"/></g></g></svg>