<svg xmlns="http://www.w3.org/2000/svg" width="154" height="64" viewBox="0 0 154 64"><g><g><path fill="#fff" d="M153.827 52.85c-.45 6.77-5.747 11.1-12.885 11.1-6.872 0-10.002-3.163-10.002-6.1 0-1.621 1.247-2.834 2.48-3.194.181-.042.29-.055.385-.055.284 0 .445.129.531.237.21.264.141.567.052.951-.025.109-.054.234-.083.378-.181 1.02-.18 2.515.873 3.772 1.161 1.386 3.36 2.12 6.357 2.12 4.543 0 9.617-3.597 9.894-9.408.203-4.772-2.147-8.118-6.055-8.757.333.84.536 1.766.605 2.766.17 2.586-.486 4.849-1.849 6.373-1.104 1.234-2.61 1.928-4.354 2.007-1.47.073-2.66-.424-3.51-1.394-.944-1.078-1.354-2.692-1.123-4.43.436-3.403 2.66-6.05 5.887-7.093-1.645-1.312-4.024-2.08-6.81-2.183-3.242-.13-6.064.543-8.433 1.97-1.206 7.44-3.688 16.015-6.777 16.015-.638 0-1.234-.395-1.677-1.114-1.042-1.694-1.26-5.306.722-9.24 1.48-2.914 3.18-5.055 5.191-6.54.257-2.357.448-4.803.567-7.296-.987 1.26-2.156 1.97-3.352 2.005-1.004 1.397-2.295 2.164-3.656 2.164-1.18 0-2.27-.486-3.153-1.405-1.317-1.372-1.987-3.498-1.886-5.987.168-4.01 1.809-7.016 4.39-8.038.528-.218 1.048-.064 1.25.34.565-.654 1.266-1.106 2.11-1.258.733-.13 1.419.166 1.987.818 1.185 1.359 1.643 3.974 1.227 6.996-.24 1.643-.612 3.068-1.113 4.254.934-.686 1.84-2.452 2.34-4.697.015-1.496.01-2.898-.017-4.281-.03-1.055.313-1.637.606-1.94.297-.304.69-.48 1.081-.48 1.084 0 1.137.627 1.137 1.732 0 .442.007.835.015 1.314.004.23.008.483.011.77 1.205-2.613 2.747-4.056 4.394-4.056.735 0 1.407.308 1.943.867 1.105 1.152 1.618 3.438 1.485 6.563-.28 5.664-3.5 8.248-6.567 8.248-.577 0-1.117-.003-1.635-.21-.057.678-.126 1.555-.21 2.224 2.473-1.056 5.341-1.058 8.836-.831 4.064.246 7.083 2.4 8.977 4.4h.236c2.775 0 5.261.225 7.003 2.08 1.858 1.979 2.772 4.393 2.575 7.523zm-38.854-22.807c-.1 2.02.382 3.792 1.286 4.741.257.27.671.592 1.183.592.28 0 .571-.088.858-.255-1.382-.895-2.366-2.73-2.586-4.92-.193-1.844-.008-3.813.58-5.412-.739 1.07-1.227 2.961-1.32 5.254zm4.96-5.112c-.054-.058-.132-.126-.203-.126-.849.244-1.915 2.415-1.79 4.938.062 1.413.556 3.196 1.727 3.915.432-.789.888-2.085 1.008-4.13.157-2.449-.274-4.099-.742-4.597zm11.389 5.142c.212-3.239-.2-4.914-.657-5.4-.123-.132-.21-.132-.244-.132-.64 0-2.695 2.878-3.748 9.673l-.064 1.027c.346.265.795.39 1.394.39 1.83 0 3.07-2.078 3.319-5.558zm-8.577 14.394a15.33 15.33 0 0 0-2.142 3.214c-1.78 3.56-1.704 6.02-1.219 6.806.088.142.183.22.28.232.584-.284 2.043-3.616 3.081-10.252zm20.878 2.765c-.074-1.258-.414-2.38-1.012-3.342-2.666.507-4.55 2.398-4.95 5-.218 1.304-.01 2.413.583 3.127.449.54 1.088.821 1.9.837l.107.002c.768 0 1.472-.317 2.037-.916.965-1.025 1.453-2.74 1.335-4.708zm-31.248-8.429c-.046.22-.271.773-1.482.624-2.446-.264-3.577-3.233-3.452-9.075.03-1.42.152-2.6.25-3.55.09-.882.193-1.88.06-2.078-.727.038-3.546 3.81-4.576 10.633-.049 1.73-1.027 2.208-1.597 2.208-1.037 0-1.221-.443-1.221-1.689 0-1.457.016-1.994.046-3.075.02-.716.047-1.67.08-3.298.075-2.74.25-5.39.522-7.89-1.378.234-2.875.249-4.374.04-4.264-.569-5.692-3.31-5.606-5.689.104-1.512 1.426-2.373 2.288-2.588a1.82 1.82 0 0 1 .389-.053c.31 0 .47.16.54.254.206.285.108.582-.04 1.034l-.08.25a3.932 3.932 0 0 0 .063 2.18c.123.274.387.66.833.66.309 0 .668-.184.984-.504.67-.678 1.062-1.828 1.047-3.075-.04-2.73-1.606-4.333-4.409-4.512a8.37 8.37 0 0 0-.54-.018c-2.527 0-5.251 1.276-5.636 4.125-.488 3.727 2.647 5.625 5.965 7.635l.375.226c3.42 2.112 7.043 4.755 6.772 9.45-.306 5.01-4.763 8.788-10.37 8.788-.694 0-1.398-.06-2.09-.18-6.885-1.188-9.051-6.53-8.814-10.744.106-1.517.587-3.64 2.284-5.178.597-.545 2.43-1.142 3.02-1.227.724-.106.911.207.987.381.187.43-.133.86-.507 1.26-1.965 1.923-2.827 3.435-3.093 5.41-.239 1.889.27 3.717 1.432 5.144 1.21 1.485 3.055 2.395 5.196 2.563 4.208.326 8.159-2.197 8.542-5.332.472-3.82-2.457-6.129-5.763-8.347l-.695-.457c-3.46-2.274-7.037-4.624-6.652-8.659.377-4.586 5.078-6.99 9.528-6.99.122 0 .243.001.362.005 2.281.085 4.1.812 5.263 2.1 1.042 1.158 1.532 2.714 1.413 4.499-.119 2.368-1.269 4.465-2.914 5.475.28.101.578.18.89.236 1.21.226 2.461.199 3.616-.077 1.204-8.836 3.717-14.523 6.433-14.523.62 0 1.209.407 1.662 1.147 1.173 1.913 1.408 5.72-.411 9.293-1.198 2.398-2.92 4.134-5.118 5.163a62.976 62.976 0 0 0-.461 6.926c1.437-3.125 3.5-5.731 5.643-5.731.511 0 .93.172 1.243.51.892.964.773 3.108.485 6.815-.534 6.513.196 8.186.902 8.443.86.381.819.909.786 1.062zm-5.814-23.384c1.457-2.914 1.273-5.64.816-6.674-.134-.303-.258-.398-.292-.408-.545.246-2.014 3.81-2.989 10.085 1.009-.737 1.835-1.744 2.465-3.003zm-28.25 7.64c.006 0-.336 3.471-.796 6.653-2.93 21.904-5.728 24.439-7.579 24.439-.624 0-1.176-.316-1.596-.912-1.087-1.543-1.112-4.67-.062-7.605a29.308 29.308 0 0 1 5.63-9.629l.03-.277c-.87 1.337-1.832 2.049-2.814 2.049-.987 0-2.657-.495-3.58-3.539-1.5 2.618-3.475 4.09-5.54 4.09-2.077 0-3.905-1.294-4.914-3.39-.8 1.927-1.91 3.772-3.23 3.772-1.081 0-1.912-1.272-2.296-3.415-.951 1.591-2.08 2.503-3.258 2.607a2.042 2.042 0 0 1-.17.006c-1.236 0-2.666-1.068-3.394-3.127-1.215 2.204-2.594 3.44-3.876 3.44-1.685 0-3.319-2.003-4.281-5.127-1.074 2.608-2.733 5.107-4.574 5.107-.703 0-1.424-.37-2.085-1.07-1.52-1.611-3.174-5.625-2.826-11.634.517-8.31 3.554-19.898 7.328-19.898.286 0 .701.094 1.057.54 1.293 1.629.768 7.125-.018 10.509-1.055 4.307-3.351 9.391-5.112 12.272.283 4.745 1.406 6.88 2.122 6.88.767 0 2.432-2.666 3.316-6.852a27.24 27.24 0 0 1-.058-4.037c.542-8.715 3.722-20.868 7.67-20.868.295 0 .723.097 1.09.56 1.352 1.702.8 7.462-.024 11.008-1.107 4.522-3.52 9.863-5.368 12.886.297 5.003 1.491 7.255 2.253 7.255.576 0 1.923-1.64 2.982-5.159.655-6.058 4.193-8.196 7.02-8.196 1.535 0 2.402.577 2.86 1.061.583.618.874 1.469.82 2.396-.13 1.005-1.649 1.89-2.4 2.031-.54.115-.805-.103-.896-.233-.222-.32-.095-.663.116-1.23l.05-.135c.278-.898.306-1.525.076-1.838-.162-.22-.501-.332-1.007-.332-1.654 0-3.04 2.295-3.45 5.711-.313 2.543.262 4.513.93 5.268.158.178.319.28.44.28.814 0 1.926-1.622 2.478-4.721l.025-.316c.02-.274.04-.53.102-.873.188-.974 1.313-1.416 2.279-1.416.42 0 .703.091.865.276l.15.173-.015.279c-.985 5.169-.671 7.092-.433 7.49.287-.26 1.015-1.47 1.901-4.94a12.565 12.565 0 0 1-.005-.94c.253-5.043 2.892-8.84 6.142-8.84.911 0 1.66.31 2.228.92 1.12 1.21 1.07 3.13 1.028 3.69-.132.998-1.654 1.798-2.4 1.938-.612.135-.815-.087-.904-.215-.204-.296-.088-.604.088-1.071l.085-.227c.38-1.07.556-2.458.153-3.028-.086-.123-.25-.286-.66-.286-1.27 0-2.391 2.901-2.553 6.605-.074 2.18.481 4.102 1.485 5.14.498.515 1.088.787 1.705.787 2.396 0 3.725-3.08 4.317-4.984-.144-1.94-.08-4.237.19-6.827.13-1.133 1.578-1.553 2.46-1.553.378 0 .624.08.775.255l.15.172-.017.272c-.842 6.682-.728 10.688.34 11.9.206.232.44.34.734.34.822 0 2.371-2.895 3.025-8.13.092-1.387.22-2.687.341-3.452.127-1.095 1.557-1.511 2.428-1.511.407 0 .67.091.823.288l.15.192zM33.18 16.753c.981-3.774.93-6.969.64-7.848-1.034 1.391-3.09 9.681-3.45 15.846 1.149-2.629 2.255-5.748 2.81-7.998zm8.938-1.017c1.052-4.048.977-7.436.656-8.3-1.088 1.36-3.303 10.257-3.662 16.827 1.226-2.79 2.415-6.13 3.006-8.527zm28.415 30.028c-.983 2.645-.834 4.303-.369 4.973.122.174.24.243.311.25.563-.227 1.79-3.454 2.905-11.133a35.71 35.71 0 0 0-2.847 5.91zm-8.737-1.136c.023.595-.137 1.457-1.029 2.182-.894.747-2.356 1.112-4.466 1.112-3.669 0-8.714-1.073-14.055-2.21-.98-.209-1.964-.419-2.939-.62-6.472-1.322-11.961-2.097-16.325-2.307-1.581 5.357-3.827 8.125-7.048 8.701a5.97 5.97 0 0 1-.968.08c-2.101 0-4.15-1.085-5.219-2.765-.862-1.355-.961-2.905-.28-4.364 1.183-2.63 4.498-3.857 10.428-3.857.348 0 .702.004 1.064.012.327-1.412.598-2.993.823-4.789-1.558 1.617-3.541 2.518-5.82 2.626l-.3.005c-2.537 0-4.752-.976-6.409-2.822-2.418-2.695-3.495-7.09-2.956-12.06.217-1.996.628-3.845 1.224-5.505-2.488-.592-4.532-1.867-5.665-3.549C.852 13.008.543 11.251.938 9.277 2.251 2.713 10.674.675 13.594.675c.518 0 .895.057 1.151.172.378.18 1.358.645 1.195 1.366-.093.413-.528.66-1.163.66-.312 0-.642-.061-.929-.17-.044-.017-.214-.07-.626-.07-2.142 0-8.658 1.602-9.576 6.507-.635 3.349 1.87 5.822 4.78 6.645 2.574-5.46 7.165-9.342 11.789-9.939 2.233-.3 4.05.296 4.95 1.636.716 1.067.787 2.506.195 3.949-1.536 3.77-7.85 6.777-14.472 6.93a25.254 25.254 0 0 0-1.078 4.793c-.58 4.72.249 8.866 2.215 11.089 1.081 1.221 2.454 1.84 4.082 1.841.092 0 .184-.002.277-.006 4.15-.204 5.55-4.45 6.016-6.964l.132-2.548c.078-2.123 1.386-2.288 1.785-2.288.317 0 1.22.133 1.22.727-.456 6.587-1.118 11.717-2.024 15.684 4.964.345 11.007 1.304 16.306 2.207 4.403.742 9.414 1.5 13.18 1.5 3.223 0 5.159-.546 5.755-1.622.12-.204.192-.359.244-.473.104-.224.261-.562.663-.562.246 0 .433.14.67.317.847.586 1.427 1.6 1.465 2.572zm-41.39-1.854c-5.089.084-6.813 1.12-7.354 1.998-.634 1.045-.719 2.143-.23 3.01.456.811 1.327 1.296 2.33 1.296.36 0 .727-.064 1.091-.19 1.72-.617 3.12-2.673 4.162-6.114zm-8.623-26.708c3.954-.314 8.695-2.295 10.004-5.04.4-.897.446-1.706.12-2.21-.331-.51-.997-.617-1.497-.617-.256 0-.537.028-.836.081-2.767.528-5.836 3.617-7.791 7.786z"/></g></g></svg>