<svg xmlns="http://www.w3.org/2000/svg" width="38" height="38" viewBox="0 0 38 38"><g><g opacity=".5"><path fill="#fff" d="M19.425.237c10.283 0 18.62 8.336 18.62 18.62 0 10.283-8.337 18.62-18.62 18.62-10.283 0-18.62-8.337-18.62-18.62C.806 8.573 9.143.237 19.426.237zm-15.69 18.62c0 8.666 7.026 15.692 15.692 15.692S35.12 27.523 35.12 18.857 28.093 3.165 19.427 3.165 3.735 10.191 3.735 18.857z"/></g><g opacity=".8"><path fill="#fff" d="M19.427 3.165c8.666 0 15.692 7.026 15.692 15.692S28.093 34.55 19.427 34.55 3.735 27.523 3.735 18.857 10.761 3.165 19.427 3.165zm9.138 10.81a7.302 7.302 0 0 1-2.092.574 3.654 3.654 0 0 0 1.601-2.015 7.282 7.282 0 0 1-2.313.884 3.642 3.642 0 0 0-6.207 3.322 10.342 10.342 0 0 1-7.507-3.806 3.64 3.64 0 0 0 1.127 4.863 3.625 3.625 0 0 1-1.65-.455v.045a3.644 3.644 0 0 0 2.922 3.572 3.654 3.654 0 0 1-1.645.062 3.645 3.645 0 0 0 3.403 2.53 7.306 7.306 0 0 1-5.393 1.508 10.309 10.309 0 0 0 5.584 1.636c6.7 0 10.363-5.55 10.363-10.363 0-.158-.004-.315-.01-.471a7.406 7.406 0 0 0 1.817-1.885z"/></g></g></svg>