<svg xmlns="http://www.w3.org/2000/svg" width="38" height="38" viewBox="0 0 38 38"><g><g opacity=".5"><path fill="#fff" d="M18.925.237c10.283 0 18.62 8.336 18.62 18.62 0 10.283-8.337 18.62-18.62 18.62-10.283 0-18.62-8.337-18.62-18.62C.306 8.573 8.643.237 18.926.237zM3.173 18.92c0 8.667 7.025 15.692 15.692 15.692 8.666 0 15.691-7.025 15.691-15.692 0-8.666-7.025-15.691-15.691-15.691-8.667 0-15.692 7.025-15.692 15.691z"/></g><g opacity=".8"><path fill="#fff" d="M18.865 3.228c8.666 0 15.691 7.025 15.691 15.691 0 8.667-7.025 15.692-15.691 15.692-8.667 0-15.692-7.025-15.692-15.692 0-8.666 7.025-15.691 15.692-15.691zm.773 24.99v-9.292h2.743l.285-3.089h-3.028l.005-1.856c0-.894.085-1.256 1.367-1.256h1.764V9.296h-2.792c-3.294 0-4.082 1.546-4.082 4.342v2.199h-1.89v3.09h1.89v9.29z"/></g></g></svg>