<svg xmlns="http://www.w3.org/2000/svg" width="38" height="38" viewBox="0 0 38 38"><g><g opacity=".5"><path fill="#fff" d="M18.925.237c10.284 0 18.62 8.336 18.62 18.62 0 10.283-8.336 18.62-18.62 18.62-10.283 0-18.62-8.337-18.62-18.62C.306 8.573 8.643.237 18.926.237zM3.173 18.92c0 8.667 7.025 15.692 15.692 15.692 8.666 0 15.691-7.025 15.691-15.692 0-8.666-7.025-15.691-15.691-15.691-8.667 0-15.692 7.025-15.692 15.691z"/></g><g opacity=".8"><path fill="#fff" d="M18.865 3.228c8.666 0 15.691 7.025 15.691 15.691 0 8.667-7.025 15.692-15.691 15.692-8.667 0-15.692-7.025-15.692-15.692 0-8.666 7.025-15.691 15.692-15.691zm5.21 16.049c-.504-.546-1.178-.905-2.016-1.082v-.072a2.936 2.936 0 0 0 1.37-1.144c.334-.517.5-1.106.5-1.77 0-.574-.122-1.08-.362-1.518-.24-.436-.605-.79-1.091-1.05a4.3 4.3 0 0 0-1.446-.477c-.514-.079-1.272-.116-2.27-.116h-4.803v13.597H19.4c.945 0 1.72-.085 2.332-.256a4.796 4.796 0 0 0 1.686-.857 3.638 3.638 0 0 0 1.032-1.268c.256-.513.383-1.107.383-1.784 0-.923-.252-1.657-.757-2.203zm-3.615-3.382c0 .295-.054.558-.157.786-.102.223-.292.401-.563.529-.25.115-.493.178-.727.19-.234.013-.645.019-1.228.019h-.43v-2.877h.237c.608 0 1.066.003 1.374.012.31.01.574.063.798.162.24.103.415.272.527.502.112.23.169.456.169.677zm.642 6.402a1.362 1.362 0 0 1-.68.59 2.882 2.882 0 0 1-1.04.245c-.34.013-.955.019-1.843.019h-.184v-3.404h.63c.607 0 1.094.003 1.456.013.36.008.647.052.853.134.34.121.596.299.767.539.172.236.255.564.255.984 0 .328-.071.622-.214.88z"/></g></g></svg>